<svg xmlns="http://www.w3.org/2000/svg" xmlns:xlink="http://www.w3.org/1999/xlink" width="500" zoomAndPan="magnify" viewBox="0 0 375 374.999991" height="500" preserveAspectRatio="xMidYMid meet" version="1.0"><defs><g/><clipPath id="f685c5797a"><path d="M 135.996094 82.023438 L 238.746094 82.023438 L 238.746094 114 L 135.996094 114 Z M 135.996094 82.023438 " clip-rule="nonzero"/></clipPath></defs><rect x="-37.5" width="450" fill="#ffffff" y="-37.499999" height="449.999989" fill-opacity="1"/><rect x="-37.5" width="450" fill="#ffffff" y="-37.499999" height="449.999989" fill-opacity="1"/><path fill="#333333" d="M 195.683594 152.609375 C 192.851562 151.351562 189.789062 150.089844 186.46875 148.804688 C 183.867188 147.800781 181.492188 146.800781 179.316406 145.828125 C 161.175781 137.585938 157.65625 129.890625 157.65625 121.535156 C 157.65625 117.355469 158.945312 113.238281 161.574219 109.832031 C 165.066406 105.28125 170.933594 101.933594 179.316406 101.105469 C 180.605469 100.992188 181.976562 100.90625 183.40625 100.90625 C 187.957031 100.90625 192.050781 101.675781 195.683594 103.136719 C 206.640625 107.542969 213.566406 118.128906 217.144531 132.4375 L 217.828125 132.4375 L 217.828125 102.421875 L 216.972656 102.421875 C 215.96875 104.566406 215.140625 106.054688 213.023438 106.683594 C 212.25 106.914062 211.335938 107.027344 210.160156 107.027344 C 205.785156 107.027344 202.007812 103.996094 195.683594 101.933594 C 192.421875 100.875 188.445312 100.046875 183.40625 100.046875 C 182.035156 100.046875 180.660156 100.101562 179.316406 100.21875 C 173.480469 100.703125 168.101562 102.222656 163.4375 104.59375 C 158.085938 107.285156 153.707031 111.0625 150.703125 115.640625 C 147.839844 119.988281 146.238281 125.054688 146.238281 130.578125 C 146.238281 147.800781 156.484375 155.8125 179.316406 165.683594 C 185.183594 168.289062 190.734375 170.519531 195.683594 172.839844 C 207.988281 178.53125 216.484375 184.484375 216.484375 196.386719 C 216.484375 198.933594 216.199219 201.28125 215.683594 203.453125 C 215.027344 206.171875 213.96875 208.578125 212.535156 210.722656 C 207.585938 218.132812 198.199219 221.996094 185.953125 221.996094 C 172.5625 221.996094 162.863281 216.246094 156.082031 207.859375 C 152.417969 203.339844 149.617188 198.105469 147.527344 192.582031 C 146.441406 189.691406 145.550781 186.746094 144.835938 183.796875 L 143.980469 183.796875 L 143.980469 221.824219 L 144.835938 221.824219 C 146.039062 218.933594 148.070312 215.699219 152.503906 215.699219 C 160.34375 215.699219 171.761719 222.855469 185.925781 222.855469 C 208.472656 222.855469 223.609375 213.070312 227.957031 198.074219 C 228.816406 195.15625 229.246094 192.039062 229.246094 188.746094 C 229.246094 174.183594 222.953125 164.570312 195.683594 152.609375 Z M 195.683594 152.609375 " fill-opacity="1" fill-rule="nonzero"/><path fill="#333333" d="M 195.683594 152.609375 C 192.851562 151.351562 189.789062 150.089844 186.46875 148.804688 C 183.867188 147.800781 181.492188 146.800781 179.316406 145.828125 L 179.316406 200.566406 L 163.777344 200.566406 L 163.777344 201.421875 L 211.191406 201.421875 L 211.191406 200.566406 L 195.683594 200.566406 Z M 195.683594 152.609375 " fill-opacity="1" fill-rule="nonzero"/><g clip-path="url(#f685c5797a)"><path fill="#333333" d="M 135.996094 82.046875 L 135.996094 113.75 L 136.855469 113.75 C 139.058594 96.210938 149.816406 82.90625 170.273438 82.90625 L 179.316406 82.90625 L 179.316406 92.949219 L 195.683594 92.949219 L 195.683594 82.90625 L 204.726562 82.90625 C 225.183594 82.90625 236.085938 96.210938 238.144531 113.78125 L 239.003906 113.78125 L 239.003906 82.046875 Z M 135.996094 82.046875 " fill-opacity="1" fill-rule="nonzero"/></g><path fill="#333333" d="M 195.683594 143.28125 L 195.683594 112.664062 L 179.316406 112.664062 L 179.316406 136.300781 C 182.347656 137.84375 185.898438 139.390625 189.988281 140.964844 C 191.964844 141.765625 193.851562 142.507812 195.683594 143.28125 Z M 195.683594 143.28125 " fill-opacity="1" fill-rule="nonzero"/><g fill="#333333" fill-opacity="1"><g transform="translate(105.966707, 266.130993)"><g><path d="M 12 0 L 7.03125 0 L 7.03125 -19.3125 L 0.65625 -19.3125 L 0.65625 -23.453125 L 18.359375 -23.453125 L 18.359375 -19.3125 L 12 -19.3125 Z M 12 0 "/></g></g></g><g fill="#333333" fill-opacity="1"><g transform="translate(129.022164, 266.130993)"><g><path d="M 12.578125 -18.265625 C 13.234375 -18.265625 13.78125 -18.21875 14.21875 -18.125 L 13.859375 -13.53125 C 13.460938 -13.644531 12.976562 -13.703125 12.40625 -13.703125 C 10.851562 -13.703125 9.640625 -13.300781 8.765625 -12.5 C 7.890625 -11.695312 7.453125 -10.570312 7.453125 -9.125 L 7.453125 0 L 2.5625 0 L 2.5625 -17.921875 L 6.265625 -17.921875 L 6.984375 -14.921875 L 7.234375 -14.921875 C 7.785156 -15.921875 8.535156 -16.726562 9.484375 -17.34375 C 10.429688 -17.957031 11.460938 -18.265625 12.578125 -18.265625 Z M 12.578125 -18.265625 "/></g></g></g><g fill="#333333" fill-opacity="1"><g transform="translate(147.97313, 266.130993)"><g><path d="M 2.359375 -22.5625 C 2.359375 -24.15625 3.242188 -24.953125 5.015625 -24.953125 C 6.796875 -24.953125 7.6875 -24.15625 7.6875 -22.5625 C 7.6875 -21.800781 7.460938 -21.207031 7.015625 -20.78125 C 6.566406 -20.363281 5.898438 -20.15625 5.015625 -20.15625 C 3.242188 -20.15625 2.359375 -20.957031 2.359375 -22.5625 Z M 7.453125 0 L 2.5625 0 L 2.5625 -17.921875 L 7.453125 -17.921875 Z M 7.453125 0 "/></g></g></g><g fill="#333333" fill-opacity="1"><g transform="translate(162.033975, 266.130993)"><g><path d="M 12.40625 0.328125 C 10.300781 0.328125 8.648438 -0.4375 7.453125 -1.96875 L 7.203125 -1.96875 C 7.367188 -0.476562 7.453125 0.382812 7.453125 0.625 L 7.453125 7.890625 L 2.5625 7.890625 L 2.5625 -17.921875 L 6.546875 -17.921875 L 7.234375 -15.609375 L 7.453125 -15.609375 C 8.597656 -17.378906 10.296875 -18.265625 12.546875 -18.265625 C 14.660156 -18.265625 16.316406 -17.445312 17.515625 -15.8125 C 18.710938 -14.175781 19.3125 -11.90625 19.3125 -9 C 19.3125 -7.082031 19.03125 -5.414062 18.46875 -4 C 17.90625 -2.59375 17.101562 -1.519531 16.0625 -0.78125 C 15.03125 -0.0390625 13.8125 0.328125 12.40625 0.328125 Z M 10.96875 -14.359375 C 9.757812 -14.359375 8.875 -13.984375 8.3125 -13.234375 C 7.757812 -12.492188 7.472656 -11.269531 7.453125 -9.5625 L 7.453125 -9.03125 C 7.453125 -7.101562 7.738281 -5.722656 8.3125 -4.890625 C 8.882812 -4.054688 9.789062 -3.640625 11.03125 -3.640625 C 13.226562 -3.640625 14.328125 -5.445312 14.328125 -9.0625 C 14.328125 -10.820312 14.054688 -12.144531 13.515625 -13.03125 C 12.972656 -13.914062 12.125 -14.359375 10.96875 -14.359375 Z M 10.96875 -14.359375 "/></g></g></g><g fill="#333333" fill-opacity="1"><g transform="translate(186.853085, 266.130993)"><g><path d="M 16.796875 -6.515625 C 16.796875 -4.390625 16.03125 -2.71875 14.5 -1.5 C 12.976562 -0.28125 10.859375 0.328125 8.140625 0.328125 C 5.640625 0.328125 3.425781 -0.144531 1.5 -1.09375 L 1.5 -5.703125 C 3.082031 -5.003906 4.421875 -4.507812 5.515625 -4.21875 C 6.617188 -3.925781 7.625 -3.78125 8.53125 -3.78125 C 9.625 -3.78125 10.460938 -3.988281 11.046875 -4.40625 C 11.628906 -4.820312 11.921875 -5.441406 11.921875 -6.265625 C 11.921875 -6.722656 11.789062 -7.128906 11.53125 -7.484375 C 11.269531 -7.847656 10.890625 -8.195312 10.390625 -8.53125 C 9.898438 -8.863281 8.890625 -9.394531 7.359375 -10.125 C 5.929688 -10.789062 4.859375 -11.429688 4.140625 -12.046875 C 3.421875 -12.671875 2.847656 -13.394531 2.421875 -14.21875 C 1.992188 -15.039062 1.78125 -16.003906 1.78125 -17.109375 C 1.78125 -19.179688 2.484375 -20.8125 3.890625 -22 C 5.296875 -23.1875 7.238281 -23.78125 9.71875 -23.78125 C 10.9375 -23.78125 12.097656 -23.632812 13.203125 -23.34375 C 14.304688 -23.0625 15.460938 -22.65625 16.671875 -22.125 L 15.078125 -18.265625 C 13.828125 -18.773438 12.789062 -19.128906 11.96875 -19.328125 C 11.15625 -19.535156 10.351562 -19.640625 9.5625 -19.640625 C 8.613281 -19.640625 7.890625 -19.421875 7.390625 -18.984375 C 6.890625 -18.546875 6.640625 -17.972656 6.640625 -17.265625 C 6.640625 -16.828125 6.738281 -16.445312 6.9375 -16.125 C 7.144531 -15.800781 7.46875 -15.484375 7.90625 -15.171875 C 8.351562 -14.867188 9.40625 -14.320312 11.0625 -13.53125 C 13.257812 -12.488281 14.765625 -11.4375 15.578125 -10.375 C 16.390625 -9.320312 16.796875 -8.035156 16.796875 -6.515625 Z M 16.796875 -6.515625 "/></g></g></g><g fill="#333333" fill-opacity="1"><g transform="translate(208.978621, 266.130993)"><g><path d="M 13.953125 0 L 13 -2.4375 L 12.875 -2.4375 C 12.050781 -1.394531 11.203125 -0.671875 10.328125 -0.265625 C 9.460938 0.128906 8.328125 0.328125 6.921875 0.328125 C 5.203125 0.328125 3.847656 -0.160156 2.859375 -1.140625 C 1.867188 -2.128906 1.375 -3.535156 1.375 -5.359375 C 1.375 -7.265625 2.039062 -8.664062 3.375 -9.5625 C 4.707031 -10.46875 6.710938 -10.96875 9.390625 -11.0625 L 12.515625 -11.15625 L 12.515625 -11.953125 C 12.515625 -13.765625 11.582031 -14.671875 9.71875 -14.671875 C 8.28125 -14.671875 6.597656 -14.238281 4.671875 -13.375 L 3.046875 -16.671875 C 5.109375 -17.753906 7.394531 -18.296875 9.90625 -18.296875 C 12.3125 -18.296875 14.15625 -17.769531 15.4375 -16.71875 C 16.726562 -15.675781 17.375 -14.085938 17.375 -11.953125 L 17.375 0 Z M 12.515625 -8.3125 L 10.609375 -8.25 C 9.191406 -8.195312 8.132812 -7.9375 7.4375 -7.46875 C 6.75 -7 6.40625 -6.285156 6.40625 -5.328125 C 6.40625 -3.941406 7.191406 -3.25 8.765625 -3.25 C 9.898438 -3.25 10.804688 -3.578125 11.484375 -4.234375 C 12.171875 -4.890625 12.515625 -5.753906 12.515625 -6.828125 Z M 12.515625 -8.3125 "/></g></g></g><g fill="#333333" fill-opacity="1"><g transform="translate(232.851773, 266.130993)"><g><path d="M 12.484375 -14.25 L 8.25 -14.25 L 8.25 0 L 3.359375 0 L 3.359375 -14.25 L 0.65625 -14.25 L 0.65625 -16.609375 L 3.359375 -17.921875 L 3.359375 -19.25 C 3.359375 -21.289062 3.859375 -22.78125 4.859375 -23.71875 C 5.859375 -24.65625 7.46875 -25.125 9.6875 -25.125 C 11.375 -25.125 12.875 -24.875 14.1875 -24.375 L 12.9375 -20.78125 C 11.957031 -21.09375 11.050781 -21.25 10.21875 -21.25 C 9.519531 -21.25 9.015625 -21.039062 8.703125 -20.625 C 8.398438 -20.21875 8.25 -19.691406 8.25 -19.046875 L 8.25 -17.921875 L 12.484375 -17.921875 Z M 12.484375 -14.25 "/></g></g></g><g fill="#333333" fill-opacity="1"><g transform="translate(249.606197, 266.130993)"><g><path d="M 9.984375 -14.78125 C 8.953125 -14.78125 8.140625 -14.453125 7.546875 -13.796875 C 6.960938 -13.140625 6.628906 -12.207031 6.546875 -11 L 13.40625 -11 C 13.382812 -12.207031 13.066406 -13.140625 12.453125 -13.796875 C 11.847656 -14.453125 11.023438 -14.78125 9.984375 -14.78125 Z M 10.6875 0.328125 C 7.789062 0.328125 5.53125 -0.46875 3.90625 -2.0625 C 2.28125 -3.65625 1.46875 -5.914062 1.46875 -8.84375 C 1.46875 -11.84375 2.21875 -14.160156 3.71875 -15.796875 C 5.226562 -17.441406 7.304688 -18.265625 9.953125 -18.265625 C 12.492188 -18.265625 14.46875 -17.539062 15.875 -16.09375 C 17.289062 -14.65625 18 -12.664062 18 -10.125 L 18 -7.75 L 6.4375 -7.75 C 6.488281 -6.351562 6.898438 -5.265625 7.671875 -4.484375 C 8.441406 -3.703125 9.519531 -3.3125 10.90625 -3.3125 C 11.988281 -3.3125 13.007812 -3.425781 13.96875 -3.65625 C 14.925781 -3.882812 15.929688 -4.242188 16.984375 -4.734375 L 16.984375 -0.953125 C 16.128906 -0.523438 15.210938 -0.207031 14.234375 0 C 13.265625 0.21875 12.082031 0.328125 10.6875 0.328125 Z M 10.6875 0.328125 "/></g></g></g></svg>